<svg width="300" height="400" viewBox="0 0 300 400" fill="none" xmlns="http://www.w3.org/2000/svg">
  <rect width="300" height="400" fill="#F4F4F5"/>
  
  <!-- Header Area -->
  <rect x="30" y="30" width="240" height="60" fill="#E4E4E7"/>
  <rect x="30" y="30" width="240" height="4" fill="#18181B"/>
  
  <!-- Content Area -->
  <rect x="30" y="110" width="240" height="4" fill="#A1A1AA"/>
  <rect x="30" y="130" width="240" height="4" fill="#A1A1AA"/>
  <rect x="30" y="150" width="240" height="4" fill="#A1A1AA"/>
  <rect x="30" y="170" width="240" height="4" fill="#A1A1AA"/>
  
  <!-- Experience Section -->
  <rect x="30" y="200" width="80" height="12" fill="#71717A"/>
  <rect x="30" y="222" width="240" height="2" fill="#A1A1AA"/>
  
  <rect x="30" y="240" width="120" height="8" fill="#A1A1AA"/>
  <rect x="30" y="255" width="240" height="3" fill="#D4D4D8"/>
  <rect x="30" y="265" width="240" height="3" fill="#D4D4D8"/>
  <rect x="30" y="275" width="180" height="3" fill="#D4D4D8"/>
  
  <rect x="30" y="295" width="120" height="8" fill="#A1A1AA"/>
  <rect x="30" y="310" width="240" height="3" fill="#D4D4D8"/>
  <rect x="30" y="320" width="240" height="3" fill="#D4D4D8"/>
  <rect x="30" y="330" width="180" height="3" fill="#D4D4D8"/>
</svg> 