<svg width="300" height="400" viewBox="0 0 300 400" fill="none" xmlns="http://www.w3.org/2000/svg">
  <rect width="300" height="400" fill="#F4F4F5"/>
  
  <!-- Accent Top Color -->
  <rect x="0" y="0" width="300" height="80" fill="#7C3AED"/>
  
  <!-- Header -->
  <rect x="40" y="40" width="120" height="80" rx="8" fill="white"/>
  <rect x="55" y="65" width="90" height="10" fill="#71717A"/>
  <rect x="55" y="85" width="60" height="6" fill="#A1A1AA"/>
  
  <!-- Contact Icons -->
  <circle cx="40" cy="150" r="8" fill="#7C3AED"/>
  <circle cx="70" cy="150" r="8" fill="#7C3AED"/>
  <circle cx="100" cy="150" r="8" fill="#7C3AED"/>
  
  <rect x="40" y="180" width="220" height="4" fill="#A1A1AA"/>
  <rect x="40" y="190" width="180" height="4" fill="#A1A1AA"/>
  <rect x="40" y="200" width="200" height="4" fill="#A1A1AA"/>
  
  <!-- Experience -->
  <rect x="40" y="230" width="80" height="10" fill="#7C3AED"/>
  
  <!-- Experience Box -->
  <rect x="40" y="250" width="220" height="60" rx="8" fill="#F3E8FF"/>
  <rect x="55" y="265" width="90" height="8" fill="#71717A"/>
  <rect x="55" y="280" width="190" height="4" fill="#A1A1AA"/>
  <rect x="55" y="290" width="150" height="4" fill="#A1A1AA"/>
  
  <!-- Second Experience Box -->
  <rect x="40" y="320" width="220" height="60" rx="8" fill="#F3E8FF"/>
  <rect x="55" y="335" width="90" height="8" fill="#71717A"/>
  <rect x="55" y="350" width="190" height="4" fill="#A1A1AA"/>
  <rect x="55" y="360" width="150" height="4" fill="#A1A1AA"/>
</svg> 